<mxfile host="65bd71144e">
    <diagram id="btUF-7EVFFRdK1dN_OiU" name="Page-1">
        <mxGraphModel dx="3196" dy="2276" grid="1" gridSize="10" guides="1" tooltips="1" connect="1" arrows="1" fold="1" page="1" pageScale="1" pageWidth="850" pageHeight="1100" math="0" shadow="0">
            <root>
                <mxCell id="0"/>
                <mxCell id="1" parent="0"/>
                <mxCell id="15" style="edgeStyle=orthogonalEdgeStyle;rounded=0;html=1;exitX=0.5;exitY=1;exitDx=0;exitDy=0;entryX=0.5;entryY=0;entryDx=0;entryDy=0;strokeWidth=5;" parent="1" source="2" target="6" edge="1">
                    <mxGeometry relative="1" as="geometry"/>
                </mxCell>
                <mxCell id="2" value="Main" style="swimlane;fontStyle=1;childLayout=stackLayout;horizontal=1;startSize=26;fillColor=#FFFF33;horizontalStack=0;resizeParent=1;resizeParentMax=0;resizeLast=0;collapsible=1;marginBottom=0;labelBackgroundColor=none;strokeColor=#23445d;fontSize=17;swimlaneLine=1;verticalAlign=middle;fontColor=#000000;spacing=7;whiteSpace=wrap;" parent="1" vertex="1">
                    <mxGeometry x="50" y="170" width="310" height="70" as="geometry"/>
                </mxCell>
                <mxCell id="3" value="User arrive here first" style="text;strokeColor=#23445d;fillColor=#FFFF33;align=left;verticalAlign=middle;spacingLeft=4;spacingRight=4;overflow=hidden;rotatable=0;points=[[0,0.5],[1,0.5]];portConstraint=eastwest;labelBackgroundColor=none;fontSize=15;fontColor=#000000;spacing=7;whiteSpace=wrap;" parent="2" vertex="1">
                    <mxGeometry y="26" width="310" height="44" as="geometry"/>
                </mxCell>
                <mxCell id="14" style="edgeStyle=orthogonalEdgeStyle;html=1;exitX=0.5;exitY=1;exitDx=0;exitDy=0;rounded=0;strokeWidth=5;" parent="1" source="6" target="12" edge="1">
                    <mxGeometry relative="1" as="geometry">
                        <mxPoint x="205" y="480" as="targetPoint"/>
                    </mxGeometry>
                </mxCell>
                <mxCell id="20" style="edgeStyle=orthogonalEdgeStyle;rounded=0;html=1;exitX=0.5;exitY=1;exitDx=0;exitDy=0;strokeWidth=5;" parent="1" source="6" target="18" edge="1">
                    <mxGeometry relative="1" as="geometry"/>
                </mxCell>
                <mxCell id="31" style="edgeStyle=orthogonalEdgeStyle;rounded=0;html=1;exitX=0.5;exitY=1;exitDx=0;exitDy=0;entryX=0.5;entryY=0;entryDx=0;entryDy=0;strokeWidth=5;" parent="1" source="6" target="21" edge="1">
                    <mxGeometry relative="1" as="geometry"/>
                </mxCell>
                <mxCell id="32" style="edgeStyle=orthogonalEdgeStyle;rounded=0;html=1;exitX=0.5;exitY=1;exitDx=0;exitDy=0;entryX=0.5;entryY=0;entryDx=0;entryDy=0;strokeWidth=5;" parent="1" source="6" target="23" edge="1">
                    <mxGeometry relative="1" as="geometry"/>
                </mxCell>
                <mxCell id="33" style="edgeStyle=orthogonalEdgeStyle;rounded=0;html=1;exitX=0.5;exitY=1;exitDx=0;exitDy=0;strokeWidth=5;" parent="1" source="6" target="25" edge="1">
                    <mxGeometry relative="1" as="geometry"/>
                </mxCell>
                <mxCell id="34" style="edgeStyle=orthogonalEdgeStyle;rounded=0;html=1;exitX=0.5;exitY=1;exitDx=0;exitDy=0;entryX=0.5;entryY=0;entryDx=0;entryDy=0;strokeWidth=5;" parent="1" source="6" target="27" edge="1">
                    <mxGeometry relative="1" as="geometry"/>
                </mxCell>
                <mxCell id="35" style="edgeStyle=orthogonalEdgeStyle;rounded=0;html=1;exitX=0.5;exitY=1;exitDx=0;exitDy=0;entryX=0.5;entryY=0;entryDx=0;entryDy=0;strokeWidth=5;" parent="1" source="6" target="29" edge="1">
                    <mxGeometry relative="1" as="geometry"/>
                </mxCell>
                <mxCell id="6" value="Bento Box" style="swimlane;fontStyle=1;childLayout=stackLayout;horizontal=1;startSize=26;fillColor=#FFFF33;horizontalStack=0;resizeParent=1;resizeParentMax=0;resizeLast=0;collapsible=1;marginBottom=0;labelBackgroundColor=none;strokeColor=#23445d;fontSize=17;swimlaneLine=1;verticalAlign=middle;fontColor=#000000;spacing=7;whiteSpace=wrap;" parent="1" vertex="1">
                    <mxGeometry x="50" y="340" width="310" height="70" as="geometry"/>
                </mxCell>
                <mxCell id="7" value="Main display" style="text;strokeColor=#23445d;fillColor=#FFFF33;align=left;verticalAlign=middle;spacingLeft=4;spacingRight=4;overflow=hidden;rotatable=0;points=[[0,0.5],[1,0.5]];portConstraint=eastwest;labelBackgroundColor=none;fontSize=15;fontColor=#000000;spacing=7;whiteSpace=wrap;" parent="6" vertex="1">
                    <mxGeometry y="26" width="310" height="44" as="geometry"/>
                </mxCell>
                <mxCell id="12" value="Business Info" style="swimlane;fontStyle=1;childLayout=stackLayout;horizontal=1;startSize=26;fillColor=#FFFF33;horizontalStack=0;resizeParent=1;resizeParentMax=0;resizeLast=0;collapsible=1;marginBottom=0;labelBackgroundColor=none;strokeColor=#23445d;fontSize=17;swimlaneLine=1;verticalAlign=middle;fontColor=#000000;spacing=7;whiteSpace=wrap;" parent="1" vertex="1">
                    <mxGeometry x="100" y="530" width="210" height="80" as="geometry"/>
                </mxCell>
                <mxCell id="13" value="Display name and other information" style="text;strokeColor=#23445d;fillColor=#FFFF33;align=left;verticalAlign=middle;spacingLeft=4;spacingRight=4;overflow=hidden;rotatable=0;points=[[0,0.5],[1,0.5]];portConstraint=eastwest;labelBackgroundColor=none;fontSize=15;fontColor=#000000;spacing=7;whiteSpace=wrap;" parent="12" vertex="1">
                    <mxGeometry y="26" width="210" height="54" as="geometry"/>
                </mxCell>
                <mxCell id="18" value="Log In" style="swimlane;fontStyle=1;childLayout=stackLayout;horizontal=1;startSize=26;fillColor=#FFFF33;horizontalStack=0;resizeParent=1;resizeParentMax=0;resizeLast=0;collapsible=1;marginBottom=0;labelBackgroundColor=none;strokeColor=#23445d;fontSize=17;swimlaneLine=1;verticalAlign=middle;fontColor=#000000;spacing=7;whiteSpace=wrap;" parent="1" vertex="1">
                    <mxGeometry x="370" y="530" width="210" height="80" as="geometry"/>
                </mxCell>
                <mxCell id="19" value="Log in" style="text;strokeColor=#23445d;fillColor=#FFFF33;align=left;verticalAlign=middle;spacingLeft=4;spacingRight=4;overflow=hidden;rotatable=0;points=[[0,0.5],[1,0.5]];portConstraint=eastwest;labelBackgroundColor=none;fontSize=15;fontColor=#000000;spacing=7;whiteSpace=wrap;" parent="18" vertex="1">
                    <mxGeometry y="26" width="210" height="54" as="geometry"/>
                </mxCell>
                <mxCell id="21" value="User" style="swimlane;fontStyle=1;childLayout=stackLayout;horizontal=1;startSize=26;fillColor=#FFFF33;horizontalStack=0;resizeParent=1;resizeParentMax=0;resizeLast=0;collapsible=1;marginBottom=0;labelBackgroundColor=none;strokeColor=#23445d;fontSize=17;swimlaneLine=1;verticalAlign=middle;fontColor=#000000;spacing=7;whiteSpace=wrap;" parent="1" vertex="1">
                    <mxGeometry x="-180" y="530" width="210" height="80" as="geometry"/>
                </mxCell>
                <mxCell id="22" value="Display how many user currently using the product" style="text;strokeColor=#23445d;fillColor=#FFFF33;align=left;verticalAlign=middle;spacingLeft=4;spacingRight=4;overflow=hidden;rotatable=0;points=[[0,0.5],[1,0.5]];portConstraint=eastwest;labelBackgroundColor=none;fontSize=15;fontColor=#000000;spacing=7;whiteSpace=wrap;" parent="21" vertex="1">
                    <mxGeometry y="26" width="210" height="54" as="geometry"/>
                </mxCell>
                <mxCell id="23" value="Business" style="swimlane;fontStyle=1;childLayout=stackLayout;horizontal=1;startSize=26;fillColor=#FFFF33;horizontalStack=0;resizeParent=1;resizeParentMax=0;resizeLast=0;collapsible=1;marginBottom=0;labelBackgroundColor=none;strokeColor=#23445d;fontSize=17;swimlaneLine=1;verticalAlign=middle;fontColor=#000000;spacing=7;whiteSpace=wrap;" parent="1" vertex="1">
                    <mxGeometry x="-460" y="530" width="210" height="80" as="geometry"/>
                </mxCell>
                <mxCell id="24" value="Display how many business currently using the product" style="text;strokeColor=#23445d;fillColor=#FFFF33;align=left;verticalAlign=middle;spacingLeft=4;spacingRight=4;overflow=hidden;rotatable=0;points=[[0,0.5],[1,0.5]];portConstraint=eastwest;labelBackgroundColor=none;fontSize=15;fontColor=#000000;spacing=7;whiteSpace=wrap;" parent="23" vertex="1">
                    <mxGeometry y="26" width="210" height="54" as="geometry"/>
                </mxCell>
                <mxCell id="25" value="LLM" style="swimlane;fontStyle=1;childLayout=stackLayout;horizontal=1;startSize=26;fillColor=#FFFF33;horizontalStack=0;resizeParent=1;resizeParentMax=0;resizeLast=0;collapsible=1;marginBottom=0;labelBackgroundColor=none;strokeColor=#23445d;fontSize=17;swimlaneLine=1;verticalAlign=middle;fontColor=#000000;spacing=7;whiteSpace=wrap;" parent="1" vertex="1">
                    <mxGeometry x="640" y="530" width="210" height="80" as="geometry"/>
                </mxCell>
                <mxCell id="26" value="LLM model" style="text;strokeColor=#23445d;fillColor=#FFFF33;align=left;verticalAlign=middle;spacingLeft=4;spacingRight=4;overflow=hidden;rotatable=0;points=[[0,0.5],[1,0.5]];portConstraint=eastwest;labelBackgroundColor=none;fontSize=15;fontColor=#000000;spacing=7;whiteSpace=wrap;" parent="25" vertex="1">
                    <mxGeometry y="26" width="210" height="54" as="geometry"/>
                </mxCell>
                <mxCell id="27" value="Math" style="swimlane;fontStyle=1;childLayout=stackLayout;horizontal=1;startSize=26;fillColor=#FFFF33;horizontalStack=0;resizeParent=1;resizeParentMax=0;resizeLast=0;collapsible=1;marginBottom=0;labelBackgroundColor=none;strokeColor=#23445d;fontSize=17;swimlaneLine=1;verticalAlign=middle;fontColor=#000000;spacing=7;whiteSpace=wrap;" parent="1" vertex="1">
                    <mxGeometry x="910" y="530" width="210" height="80" as="geometry"/>
                </mxCell>
                <mxCell id="28" value="Math model" style="text;strokeColor=#23445d;fillColor=#FFFF33;align=left;verticalAlign=middle;spacingLeft=4;spacingRight=4;overflow=hidden;rotatable=0;points=[[0,0.5],[1,0.5]];portConstraint=eastwest;labelBackgroundColor=none;fontSize=15;fontColor=#000000;spacing=7;whiteSpace=wrap;" parent="27" vertex="1">
                    <mxGeometry y="26" width="210" height="54" as="geometry"/>
                </mxCell>
                <mxCell id="29" value="Game AI" style="swimlane;fontStyle=1;childLayout=stackLayout;horizontal=1;startSize=26;fillColor=#FFFF33;horizontalStack=0;resizeParent=1;resizeParentMax=0;resizeLast=0;collapsible=1;marginBottom=0;labelBackgroundColor=none;strokeColor=#23445d;fontSize=17;swimlaneLine=1;verticalAlign=middle;fontColor=#000000;spacing=7;whiteSpace=wrap;" parent="1" vertex="1">
                    <mxGeometry x="1180" y="530" width="210" height="80" as="geometry"/>
                </mxCell>
                <mxCell id="30" value="Game AI model" style="text;strokeColor=#23445d;fillColor=#FFFF33;align=left;verticalAlign=middle;spacingLeft=4;spacingRight=4;overflow=hidden;rotatable=0;points=[[0,0.5],[1,0.5]];portConstraint=eastwest;labelBackgroundColor=none;fontSize=15;fontColor=#000000;spacing=7;whiteSpace=wrap;" parent="29" vertex="1">
                    <mxGeometry y="26" width="210" height="54" as="geometry"/>
                </mxCell>
                <mxCell id="36" value="Words" style="rounded=1;whiteSpace=wrap;html=1;fillColor=#1ba1e2;fontColor=#ffffff;strokeColor=#006EAF;" parent="1" vertex="1">
                    <mxGeometry x="-50" y="-760" width="220" height="100" as="geometry"/>
                </mxCell>
                <mxCell id="37" value="Company things" style="rounded=1;whiteSpace=wrap;html=1;fillColor=#1ba1e2;fontColor=#ffffff;strokeColor=#006EAF;" parent="1" vertex="1">
                    <mxGeometry x="-290" y="-760" width="220" height="220" as="geometry"/>
                </mxCell>
                <mxCell id="38" value="Line Chart to show growth rate" style="rounded=1;whiteSpace=wrap;html=1;fillColor=#1ba1e2;fontColor=#ffffff;strokeColor=#006EAF;" parent="1" vertex="1">
                    <mxGeometry x="-50" y="-640" width="340" height="220" as="geometry"/>
                </mxCell>
                <mxCell id="39" value="Log In" style="rounded=1;whiteSpace=wrap;html=1;fillColor=#1ba1e2;fontColor=#ffffff;strokeColor=#006EAF;" parent="1" vertex="1">
                    <mxGeometry x="310" y="-760" width="220" height="100" as="geometry"/>
                </mxCell>
                <mxCell id="40" value="" style="rounded=1;whiteSpace=wrap;html=1;fillColor=#1ba1e2;fontColor=#ffffff;strokeColor=#006EAF;" parent="1" vertex="1">
                    <mxGeometry x="-1180" y="-340" width="100" height="100" as="geometry"/>
                </mxCell>
                <mxCell id="41" value="" style="rounded=1;whiteSpace=wrap;html=1;fillColor=#1ba1e2;fontColor=#ffffff;strokeColor=#006EAF;" parent="1" vertex="1">
                    <mxGeometry x="-1060" y="-340" width="100" height="100" as="geometry"/>
                </mxCell>
                <mxCell id="42" value="" style="rounded=1;whiteSpace=wrap;html=1;fillColor=#1ba1e2;fontColor=#ffffff;strokeColor=#006EAF;" parent="1" vertex="1">
                    <mxGeometry x="-940" y="-340" width="100" height="100" as="geometry"/>
                </mxCell>
                <mxCell id="43" value="" style="rounded=1;whiteSpace=wrap;html=1;fillColor=#1ba1e2;fontColor=#ffffff;strokeColor=#006EAF;" parent="1" vertex="1">
                    <mxGeometry x="-1180" y="-220" width="100" height="100" as="geometry"/>
                </mxCell>
                <mxCell id="44" value="" style="rounded=1;whiteSpace=wrap;html=1;fillColor=#1ba1e2;fontColor=#ffffff;strokeColor=#006EAF;" parent="1" vertex="1">
                    <mxGeometry x="-1060" y="-220" width="100" height="100" as="geometry"/>
                </mxCell>
                <mxCell id="45" value="" style="rounded=1;whiteSpace=wrap;html=1;fillColor=#1ba1e2;fontColor=#ffffff;strokeColor=#006EAF;" parent="1" vertex="1">
                    <mxGeometry x="-940" y="-220" width="100" height="100" as="geometry"/>
                </mxCell>
                <mxCell id="46" value="?" style="rounded=1;whiteSpace=wrap;html=1;fillColor=#1ba1e2;fontColor=#ffffff;strokeColor=#006EAF;" parent="1" vertex="1">
                    <mxGeometry x="190" y="-760" width="100" height="100" as="geometry"/>
                </mxCell>
                <mxCell id="47" value="" style="rounded=1;whiteSpace=wrap;html=1;fillColor=#1ba1e2;fontColor=#ffffff;strokeColor=#006EAF;" parent="1" vertex="1">
                    <mxGeometry x="-810" y="-340" width="20" height="100" as="geometry"/>
                </mxCell>
                <mxCell id="48" value="" style="rounded=1;whiteSpace=wrap;html=1;fillColor=#1ba1e2;fontColor=#ffffff;strokeColor=#006EAF;" parent="1" vertex="1">
                    <mxGeometry x="-1420" y="-210" width="220" height="100" as="geometry"/>
                </mxCell>
                <mxCell id="49" value="Social Media" style="rounded=1;whiteSpace=wrap;html=1;fillColor=#1ba1e2;fontColor=#ffffff;strokeColor=#006EAF;" parent="1" vertex="1">
                    <mxGeometry x="70" y="-400" width="220" height="100" as="geometry"/>
                </mxCell>
                <mxCell id="51" value="QR code&lt;br&gt;for App" style="rounded=1;whiteSpace=wrap;html=1;fillColor=#1ba1e2;fontColor=#ffffff;strokeColor=#006EAF;" parent="1" vertex="1">
                    <mxGeometry x="-50" y="-400" width="100" height="100" as="geometry"/>
                </mxCell>
                <mxCell id="55" value="" style="rounded=1;whiteSpace=wrap;html=1;fillColor=#60a917;fontColor=#ffffff;strokeColor=#2D7600;" parent="1" vertex="1">
                    <mxGeometry x="-290" y="-520" width="220" height="220" as="geometry"/>
                </mxCell>
                <mxCell id="52" value="Registered&lt;br&gt;Business" style="rounded=1;whiteSpace=wrap;html=1;fillColor=#1ba1e2;fontColor=#ffffff;strokeColor=#006EAF;" parent="1" vertex="1">
                    <mxGeometry x="-170" y="-500" width="80" height="80" as="geometry"/>
                </mxCell>
                <mxCell id="53" value="Registered&lt;br&gt;Neuronian" style="rounded=1;whiteSpace=wrap;html=1;fillColor=#1ba1e2;fontColor=#ffffff;strokeColor=#006EAF;" parent="1" vertex="1">
                    <mxGeometry x="-270" y="-500" width="80" height="80" as="geometry"/>
                </mxCell>
                <mxCell id="54" value="Active&lt;br&gt;Neuronian" style="rounded=1;whiteSpace=wrap;html=1;fillColor=#1ba1e2;fontColor=#ffffff;strokeColor=#006EAF;" parent="1" vertex="1">
                    <mxGeometry x="-270" y="-400" width="80" height="80" as="geometry"/>
                </mxCell>
                <mxCell id="56" value="" style="rounded=1;whiteSpace=wrap;html=1;fillColor=#60a917;fontColor=#ffffff;strokeColor=#2D7600;" parent="1" vertex="1">
                    <mxGeometry x="310" y="-640" width="220" height="340" as="geometry"/>
                </mxCell>
                <mxCell id="50" value="Language AI" style="rounded=1;whiteSpace=wrap;html=1;fillColor=#1ba1e2;fontColor=#ffffff;strokeColor=#006EAF;" parent="1" vertex="1">
                    <mxGeometry x="320" y="-620" width="200" height="80" as="geometry"/>
                </mxCell>
                <mxCell id="57" value="Math AI" style="rounded=1;whiteSpace=wrap;html=1;fillColor=#1ba1e2;fontColor=#ffffff;strokeColor=#006EAF;" parent="1" vertex="1">
                    <mxGeometry x="320" y="-510" width="200" height="80" as="geometry"/>
                </mxCell>
                <mxCell id="58" value="Game AI" style="rounded=1;whiteSpace=wrap;html=1;fillColor=#1ba1e2;fontColor=#ffffff;strokeColor=#006EAF;" parent="1" vertex="1">
                    <mxGeometry x="320" y="-400" width="200" height="80" as="geometry"/>
                </mxCell>
                <mxCell id="59" value="Words" style="rounded=1;whiteSpace=wrap;html=1;fillColor=#1ba1e2;fontColor=#ffffff;strokeColor=#006EAF;" parent="1" vertex="1">
                    <mxGeometry x="720" y="-760" width="220" height="100" as="geometry"/>
                </mxCell>
                <mxCell id="60" value="Company things" style="rounded=1;whiteSpace=wrap;html=1;fillColor=#1ba1e2;fontColor=#ffffff;strokeColor=#006EAF;" parent="1" vertex="1">
                    <mxGeometry x="1080" y="-760" width="220" height="220" as="geometry"/>
                </mxCell>
                <mxCell id="61" value="Line Chart to show growth rate" style="rounded=1;whiteSpace=wrap;html=1;fillColor=#1ba1e2;fontColor=#ffffff;strokeColor=#006EAF;" parent="1" vertex="1">
                    <mxGeometry x="720" y="-640" width="340" height="220" as="geometry"/>
                </mxCell>
                <mxCell id="62" value="Log In" style="rounded=1;whiteSpace=wrap;html=1;fillColor=#1ba1e2;fontColor=#ffffff;strokeColor=#006EAF;" parent="1" vertex="1">
                    <mxGeometry x="1080" y="-520" width="220" height="100" as="geometry"/>
                </mxCell>
                <mxCell id="63" value="?" style="rounded=1;whiteSpace=wrap;html=1;fillColor=#1ba1e2;fontColor=#ffffff;strokeColor=#006EAF;" parent="1" vertex="1">
                    <mxGeometry x="960" y="-760" width="100" height="100" as="geometry"/>
                </mxCell>
                <mxCell id="64" value="Social Media" style="rounded=1;whiteSpace=wrap;html=1;fillColor=#1ba1e2;fontColor=#ffffff;strokeColor=#006EAF;" parent="1" vertex="1">
                    <mxGeometry x="840" y="-400" width="220" height="100" as="geometry"/>
                </mxCell>
                <mxCell id="65" value="QR code&lt;br&gt;for App" style="rounded=1;whiteSpace=wrap;html=1;fillColor=#1ba1e2;fontColor=#ffffff;strokeColor=#006EAF;" parent="1" vertex="1">
                    <mxGeometry x="720" y="-400" width="100" height="100" as="geometry"/>
                </mxCell>
                <mxCell id="74" value="" style="group" parent="1" vertex="1" connectable="0">
                    <mxGeometry x="840" y="-280" width="220" height="220" as="geometry"/>
                </mxCell>
                <mxCell id="66" value="" style="rounded=1;whiteSpace=wrap;html=1;fillColor=#60a917;fontColor=#ffffff;strokeColor=#2D7600;" parent="74" vertex="1">
                    <mxGeometry width="220" height="220" as="geometry"/>
                </mxCell>
                <mxCell id="67" value="Registered&lt;br&gt;Business" style="rounded=1;whiteSpace=wrap;html=1;fillColor=#1ba1e2;fontColor=#ffffff;strokeColor=#006EAF;" parent="74" vertex="1">
                    <mxGeometry x="120" y="20" width="80" height="80" as="geometry"/>
                </mxCell>
                <mxCell id="68" value="Registered&lt;br&gt;Neuronian" style="rounded=1;whiteSpace=wrap;html=1;fillColor=#1ba1e2;fontColor=#ffffff;strokeColor=#006EAF;" parent="74" vertex="1">
                    <mxGeometry x="20" y="20" width="80" height="80" as="geometry"/>
                </mxCell>
                <mxCell id="69" value="Active&lt;br&gt;Neuronian" style="rounded=1;whiteSpace=wrap;html=1;fillColor=#1ba1e2;fontColor=#ffffff;strokeColor=#006EAF;" parent="74" vertex="1">
                    <mxGeometry x="20" y="120" width="80" height="80" as="geometry"/>
                </mxCell>
                <mxCell id="75" value="" style="group" parent="1" vertex="1" connectable="0">
                    <mxGeometry x="1080" y="-400" width="220" height="340" as="geometry"/>
                </mxCell>
                <mxCell id="70" value="" style="rounded=1;whiteSpace=wrap;html=1;fillColor=#60a917;fontColor=#ffffff;strokeColor=#2D7600;" parent="75" vertex="1">
                    <mxGeometry width="220" height="340" as="geometry"/>
                </mxCell>
                <mxCell id="71" value="Language AI" style="rounded=1;whiteSpace=wrap;html=1;fillColor=#1ba1e2;fontColor=#ffffff;strokeColor=#006EAF;" parent="75" vertex="1">
                    <mxGeometry x="10" y="20" width="200" height="80" as="geometry"/>
                </mxCell>
                <mxCell id="72" value="Math AI" style="rounded=1;whiteSpace=wrap;html=1;fillColor=#1ba1e2;fontColor=#ffffff;strokeColor=#006EAF;" parent="75" vertex="1">
                    <mxGeometry x="10" y="130" width="200" height="80" as="geometry"/>
                </mxCell>
                <mxCell id="73" value="Game AI" style="rounded=1;whiteSpace=wrap;html=1;fillColor=#1ba1e2;fontColor=#ffffff;strokeColor=#006EAF;" parent="75" vertex="1">
                    <mxGeometry x="10" y="240" width="200" height="80" as="geometry"/>
                </mxCell>
                <mxCell id="76" value="Words" style="rounded=1;whiteSpace=wrap;html=1;fillColor=#1ba1e2;fontColor=#ffffff;strokeColor=#006EAF;" parent="1" vertex="1">
                    <mxGeometry x="1480" y="-760" width="220" height="100" as="geometry"/>
                </mxCell>
                <mxCell id="77" value="Company things" style="rounded=1;whiteSpace=wrap;html=1;fillColor=#1ba1e2;fontColor=#ffffff;strokeColor=#006EAF;" parent="1" vertex="1">
                    <mxGeometry x="1480" y="-640" width="220" height="220" as="geometry"/>
                </mxCell>
                <mxCell id="78" value="Line Chart to show growth rate" style="rounded=1;whiteSpace=wrap;html=1;fillColor=#1ba1e2;fontColor=#ffffff;strokeColor=#006EAF;" parent="1" vertex="1">
                    <mxGeometry x="1480" y="-160" width="340" height="220" as="geometry"/>
                </mxCell>
                <mxCell id="79" value="Log In" style="rounded=1;whiteSpace=wrap;html=1;fillColor=#1ba1e2;fontColor=#ffffff;strokeColor=#006EAF;" parent="1" vertex="1">
                    <mxGeometry x="1720" y="-640" width="220" height="100" as="geometry"/>
                </mxCell>
                <mxCell id="80" value="?" style="rounded=1;whiteSpace=wrap;html=1;fillColor=#1ba1e2;fontColor=#ffffff;strokeColor=#006EAF;" parent="1" vertex="1">
                    <mxGeometry x="1840" y="-160" width="100" height="100" as="geometry"/>
                </mxCell>
                <mxCell id="81" value="Social Media" style="rounded=1;whiteSpace=wrap;html=1;fillColor=#1ba1e2;fontColor=#ffffff;strokeColor=#006EAF;" parent="1" vertex="1">
                    <mxGeometry x="1720" y="-760" width="220" height="100" as="geometry"/>
                </mxCell>
                <mxCell id="82" value="QR code&lt;br&gt;for App" style="rounded=1;whiteSpace=wrap;html=1;fillColor=#1ba1e2;fontColor=#ffffff;strokeColor=#006EAF;" parent="1" vertex="1">
                    <mxGeometry x="1840" y="-40" width="100" height="100" as="geometry"/>
                </mxCell>
                <mxCell id="83" value="" style="group" parent="1" vertex="1" connectable="0">
                    <mxGeometry x="1480" y="-400" width="220" height="220" as="geometry"/>
                </mxCell>
                <mxCell id="84" value="" style="rounded=1;whiteSpace=wrap;html=1;fillColor=#60a917;fontColor=#ffffff;strokeColor=#2D7600;" parent="83" vertex="1">
                    <mxGeometry width="220" height="220" as="geometry"/>
                </mxCell>
                <mxCell id="85" value="Registered&lt;br&gt;Business" style="rounded=1;whiteSpace=wrap;html=1;fillColor=#1ba1e2;fontColor=#ffffff;strokeColor=#006EAF;" parent="83" vertex="1">
                    <mxGeometry x="120" y="20" width="80" height="80" as="geometry"/>
                </mxCell>
                <mxCell id="86" value="Registered&lt;br&gt;Neuronian" style="rounded=1;whiteSpace=wrap;html=1;fillColor=#1ba1e2;fontColor=#ffffff;strokeColor=#006EAF;" parent="83" vertex="1">
                    <mxGeometry x="20" y="20" width="80" height="80" as="geometry"/>
                </mxCell>
                <mxCell id="87" value="Active&lt;br&gt;Neuronian" style="rounded=1;whiteSpace=wrap;html=1;fillColor=#1ba1e2;fontColor=#ffffff;strokeColor=#006EAF;" parent="83" vertex="1">
                    <mxGeometry x="20" y="120" width="80" height="80" as="geometry"/>
                </mxCell>
                <mxCell id="88" value="" style="group" parent="1" vertex="1" connectable="0">
                    <mxGeometry x="1720" y="-520" width="220" height="340" as="geometry"/>
                </mxCell>
                <mxCell id="89" value="" style="rounded=1;whiteSpace=wrap;html=1;fillColor=#60a917;fontColor=#ffffff;strokeColor=#2D7600;" parent="88" vertex="1">
                    <mxGeometry width="220" height="340" as="geometry"/>
                </mxCell>
                <mxCell id="90" value="Language AI" style="rounded=1;whiteSpace=wrap;html=1;fillColor=#1ba1e2;fontColor=#ffffff;strokeColor=#006EAF;" parent="88" vertex="1">
                    <mxGeometry x="10" y="20" width="200" height="80" as="geometry"/>
                </mxCell>
                <mxCell id="91" value="Math AI" style="rounded=1;whiteSpace=wrap;html=1;fillColor=#1ba1e2;fontColor=#ffffff;strokeColor=#006EAF;" parent="88" vertex="1">
                    <mxGeometry x="10" y="130" width="200" height="80" as="geometry"/>
                </mxCell>
                <mxCell id="92" value="Game AI" style="rounded=1;whiteSpace=wrap;html=1;fillColor=#1ba1e2;fontColor=#ffffff;strokeColor=#006EAF;" parent="88" vertex="1">
                    <mxGeometry x="10" y="240" width="200" height="80" as="geometry"/>
                </mxCell>
            </root>
        </mxGraphModel>
    </diagram>
</mxfile>